<svg width="28" height="27" viewBox="0 0 28 27" fill="none" xmlns="http://www.w3.org/2000/svg">
<path d="M20.1875 7.3125H20.1988M8.375 2.25H19.625C22.7316 2.25 25.25 4.7684 25.25 7.875V19.125C25.25 22.2316 22.7316 24.75 19.625 24.75H8.375C5.2684 24.75 2.75 22.2316 2.75 19.125V7.875C2.75 4.7684 5.2684 2.25 8.375 2.25ZM18.5 12.7912C18.6388 13.7275 18.4789 14.6837 18.043 15.5239C17.607 16.364 16.9173 17.0453 16.0718 17.4709C15.2264 17.8964 14.2683 18.0445 13.3338 17.8942C12.3993 17.7438 11.536 17.3026 10.8667 16.6333C10.1974 15.964 9.7562 15.1007 9.60583 14.1662C9.45545 13.2317 9.60357 12.2736 10.0291 11.4282C10.4547 10.5827 11.136 9.89296 11.9761 9.45702C12.8163 9.02108 13.7725 8.86116 14.7088 9C15.6638 9.14162 16.548 9.58665 17.2307 10.2693C17.9134 10.952 18.3584 11.8362 18.5 12.7912Z" stroke="white" stroke-linecap="round" stroke-linejoin="round"/>
</svg>
